<svg xmlns="http://www.w3.org/2000/svg" viewBox="0 0 89.86 59.1"><defs><style>.cls-1{fill:none;stroke:#9248e6;stroke-linecap:round;stroke-linejoin:round;stroke-width:3.04px;}</style></defs><g id="Camada_2" data-name="Camada 2"><g id="OBJECTS"><path class="cls-1" d="M1.52,1.52c8.68,0,8.68,14.21,17.36,14.21S27.56,1.52,36.24,1.52s8.68,14.21,17.37,14.21S62.29,1.52,71,1.52s8.68,14.21,17.37,14.21"/><path class="cls-1" d="M1.52,15.47c8.68,0,8.68,14.21,17.36,14.21s8.68-14.21,17.36-14.21,8.68,14.21,17.37,14.21S62.29,15.47,71,15.47s8.68,14.21,17.37,14.21"/><path class="cls-1" d="M1.52,29.42c8.68,0,8.68,14.21,17.36,14.21s8.68-14.21,17.36-14.21,8.68,14.21,17.37,14.21S62.29,29.42,71,29.42s8.68,14.21,17.37,14.21"/><path class="cls-1" d="M1.52,43.37c8.68,0,8.68,14.21,17.36,14.21s8.68-14.21,17.36-14.21,8.68,14.21,17.37,14.21S62.29,43.37,71,43.37s8.68,14.21,17.37,14.21"/></g></g></svg>